Coordinates
version=1
nRows=8
nColumns=40
inDegrees=yes

Units are S.I. units (second, meters, Newtons, ...)
If the header above contains a line with 'inDegrees', this indicates whether rotational values are in degrees (yes) or radians (no).

endheader
time	pelvis_tilt	pelvis_list	pelvis_rotation	pelvis_tx	pelvis_ty	pelvis_tz	hip_flexion_r	hip_adduction_r	hip_rotation_r	knee_angle_r	knee_angle_r_beta	ankle_angle_r	subtalar_angle_r	mtp_angle_r	hip_flexion_l	hip_adduction_l	hip_rotation_l	knee_angle_l	knee_angle_l_beta	ankle_angle_l	subtalar_angle_l	mtp_angle_l	lumbar_extension	lumbar_bending	lumbar_rotation	arm_flex_r	arm_add_r	arm_rot_r	elbow_flex_r	pro_sup_r	wrist_flex_r	wrist_dev_r	arm_flex_l	arm_add_l	arm_rot_l	elbow_flex_l	pro_sup_l	wrist_flex_l	wrist_dev_l
     44.94000000	     -6.47330119	     -4.38098512	      3.33323183	      1.33324416	      0.90343481	     -0.54507041	     34.86322450	      3.38631495	     -2.84373839	      4.88244121	      0.08521467	      0.78024647	      5.56323331	      0.00000000	    -16.05087864	     -3.28610598	     -6.88707341	     13.63326614	      0.23794538	    -19.58034522	     13.93827063	      0.00000000	     -5.70993314	      8.10011780	    -19.33165755	      0.00000000	    -14.99999929	      0.00000000	     75.00017585	     45.00000026	      0.00000000	      0.00000000	      0.00000000	    -14.99999929	      0.00000000	     75.00017585	     45.00000026	      0.00000000	      0.00000000
     44.95000000	     -6.66388755	     -4.31974752	      2.67501592	      1.33555128	      0.90279131	     -0.54379911	     34.61306432	      3.94851249	     -1.84752477	      4.88222350	      0.08521087	      1.13543234	      5.91274431	      0.00000000	    -16.27807262	     -3.12627717	     -7.23840995	     15.47517689	      0.27009279	    -20.63298170	     12.98316844	      0.00000000	     -5.20300663	      8.17971467	    -18.72135479	      0.00000000	    -14.99999929	      0.00000000	     75.00017585	     45.00000026	      0.00000000	      0.00000000	      0.00000000	    -14.99999929	      0.00000000	     75.00017585	     45.00000026	      0.00000000	      0.00000000
     44.96000000	     -6.78948216	     -4.24489477	      2.05160211	      1.33738948	      0.90128659	     -0.54237772	     34.32311249	      4.53049505	     -0.67759733	      5.78432936	      0.10095559	      1.44293523	      6.27358441	      0.00000000	    -16.14760931	     -3.02359683	     -7.41554541	     17.90097363	      0.31243093	    -22.09685099	     10.13279173	      0.00000000	     -4.80616650	      8.19494614	    -17.96563417	      0.00000000	    -14.99999929	      0.00000000	     75.00017585	     45.00000026	      0.00000000	      0.00000000	      0.00000000	    -14.99999929	      0.00000000	     75.00017585	     45.00000026	      0.00000000	      0.00000000
     44.97000000	     -6.72086276	     -3.99385541	      1.38904694	      1.33893616	      0.89945155	     -0.54127198	     33.83694358	      4.97781005	      0.79447986	      7.48021094	      0.13055431	      1.83525711	      6.38147506	      0.00000000	    -15.82859178	     -2.59158307	     -7.08717652	     20.91925388	      0.36510986	    -21.33332399	      8.39004759	      0.00000000	     -4.68608869	      8.03093163	    -17.08884378	      0.00000000	    -14.99999929	      0.00000000	     75.00017585	     45.00000026	      0.00000000	      0.00000000	      0.00000000	    -14.99999929	      0.00000000	     75.00017585	     45.00000026	      0.00000000	      0.00000000
     44.98000000	     -6.29417928	     -3.58232908	      0.85629826	      1.34018380	      0.89728109	     -0.54007752	     32.71420988	      5.27428513	      2.63329073	      9.44774914	      0.16489433	      2.12938434	      6.39566152	      0.00000000	    -15.45466008	     -2.10699886	     -6.59705480	     24.42839214	      0.42635587	    -19.78104168	      6.55224104	      0.00000000	     -5.00553806	      7.60590027	    -16.21020761	      0.00000000	    -14.99999930	      0.00000000	     75.00017585	     45.00000026	      0.00000000	      0.00000000	      0.00000000	    -14.99999930	      0.00000000	     75.00017585	     45.00000026	      0.00000000	      0.00000000
     44.99000000	     -5.85016053	     -3.10119432	      0.33063710	      1.34131779	      0.89443387	     -0.53910550	     31.49928766	      5.44645543	      4.13557434	     11.42897913	      0.19947332	      1.24391564	      6.15874022	      0.00000000	    -14.73483509	     -1.48261648	     -5.90588052	     28.32945000	      0.49444218	    -16.83858615	      5.45886751	      0.00000000	     -5.33338623	      7.14056832	    -15.27703209	      0.00000000	    -14.99999930	      0.00000000	     75.00017585	     45.00000026	      0.00000000	      0.00000000	      0.00000000	    -14.99999930	      0.00000000	     75.00017585	     45.00000026	      0.00000000	      0.00000000
     45.00000000	     -5.00375579	     -2.92835094	     -0.13622370	      1.34224886	      0.89145304	     -0.53772735	     29.62438049	      5.88215503	      4.93002388	     12.52279388	      0.21856398	     -0.81895473	      5.06574116	      0.00000000	    -14.12745192	     -1.49561163	     -6.15152168	     32.39093377	      0.56532844	    -13.91430674	      4.85240404	      0.00000000	     -6.20354481	      6.97761570	    -14.26304403	      0.00000000	    -14.99999930	      0.00000000	     75.00017585	     45.00000026	      0.00000000	      0.00000000	      0.00000000	    -14.99999930	      0.00000000	     75.00017585	     45.00000026	      0.00000000	      0.00000000
     45.01000000	     -4.02979102	     -2.88066277	     -0.49531605	      1.34262126	      0.88822990	     -0.53648435	     27.41838844	      6.28315205	      5.57514622	     12.71427471	      0.22190596	     -4.90282068	      3.88272974	      0.00000000	    -13.33773338	     -1.75375991	     -6.49214162	     36.58764203	      0.63857482	    -10.87769308	      4.40227365	      0.00000000	     -7.33073260	      6.93213774	    -13.26398995	      0.00000000	    -14.99999931	      0.00000000	     75.00017585	     45.00000026	      0.00000000	      0.00000000	      0.00000000	    -14.99999931	      0.00000000	     75.00017585	     45.00000026	      0.00000000	      0.00000000
